<?xml version="1.0" encoding="UTF-8"?>
<svg id="Layer_1" data-name="Layer 1" xmlns="http://www.w3.org/2000/svg" version="1.1" viewBox="0 0 1920 960">
  <defs>
    <style>
      .cls-1 {
        fill: #812b89;
      }

      .cls-1, .cls-2, .cls-3, .cls-4, .cls-5, .cls-6, .cls-7, .cls-8, .cls-9, .cls-10, .cls-11, .cls-12, .cls-13, .cls-14, .cls-15, .cls-16, .cls-17, .cls-18 {
        stroke-width: 0px;
      }

      .cls-2 {
        fill: #979697;
      }

      .cls-3 {
        fill: #5d5e5e;
      }

      .cls-4 {
        fill: #acacac;
      }

      .cls-5 {
        fill: #7b1e7c;
      }

      .cls-6 {
        fill: #a2a2a2;
      }

      .cls-7 {
        fill: #8c8c8c;
      }

      .cls-8 {
        fill: #6f6f6f;
      }

      .cls-9 {
        fill: #831f84;
      }

      .cls-10 {
        fill: #9d9d9d;
      }

      .cls-11 {
        fill: #94449b;
      }

      .cls-12 {
        fill: #7e7e7e;
      }

      .cls-13 {
        fill: #919191;
      }

      .cls-14 {
        fill: #7e3a7b;
      }

      .cls-15 {
        fill: #8e2a8c;
      }

      .cls-16 {
        fill: #fff;
      }

      .cls-17 {
        fill: #8a218a;
      }

      .cls-18 {
        fill: #842687;
      }
    </style>
  </defs>
  <path class="cls-13" d="M919.8,402.4c-8.3-3-16.4-6.4-24.8-8.8-8.2-2.3-12.8,1.7-12.7,10.3,0,12.7.3,25.3.5,38,0,1.2-.2,2.5-.3,5.1-5.7-6.9-11.3-12-21.3-9.3.5-1.2.7-2.8,1.5-3.1,3.1-1.3,3.7-2.6.8-4.8-.5-.4-1.2-1-1.2-1.4.4-5.4-4-5.7-7.4-7.2.3-7.5.3-7.4-7.8-6.5-.7,0-2.5-2.3-2.3-2.7,3.5-6.8,1.4-12.3-2.9-17.9-1.8-2.4-2.5-6.1-2.7-9.2-.5-5.9-1.4-11.5-7-14.5-2.8-1.5-6.2-1.6-9.2-2.6-1.6-.5-3-1.4-4.4-2.4-3.8-2.6-7.6-5.3-11.4-8-1.4-1.1-2.7-2.4-3.8-3.3-2.4.2-5.2,1.3-7.4.6-5.2-1.7-8.3,1-11.1,4.4-4,4.8-6.8,11.1-11.7,14.4-5.4,3.6-12.5,4.7-19,6.5-.7.2-2.2-2.4-2.9-3.2,2.4-3.3,4.7-5.7,6.2-8.6,1.5-2.8.3-4.5-3.1-3.9-9.6,1.6-17.5-1.5-21.7-9.1-1.5-2.6-2.2-5.7-2.8-8.7-.2-.8,1.3-2,2.1-3,1.5-1.9,3.3-3.6,4.4-5.7,1.3-2.4,1.1-4.3-2.5-4.9-1.7-.3-3.4-2.1-4.4-3.7-1.3-2.2-1.8-4.8-2.9-7.9,1.1-.5,2.9-2,4.1-1.6,3.2,1,4.9-.5,6.9-2.4,4.9-4.6,5-5,0-9.6-.7-.7-1.9-1.8-1.7-2.3,1.5-4.9-1.2-7.8-4.5-10.7-.5-.4.2-3.1,1-4.1,1.6-1.9,3.8-3.4,6.2-5.4,4.6,2.1,9.1.5,13.8-2.3,2.2-1.3,5.5-.8,8.3-.7,1.5,0,3.1.9,3.7,1.1,2.2-2.4,3.6-4.4,5.5-6,4.1-3.4-.6-5.4-1.2-7.7,4.2-3,8.3-5.8,12.6-8.9.3,1.2.8,2.1.8,3,0,7.9,1.4,9.7,9.3,12.7,1.2.5,2.1,2.7,2.6,4.2,1,3.6,2.6,6.3,5.3,6.4.9-3.4,1.1-6.3,2.3-8.6,2.9-5.4,5.7-10.7,2.6-16.8,5.8-3.2,6.8-2.8,8.1,2.7.8,3.5,3,5.1,6.2,3.1,5.6-3.3,9.3-2.6,11,4.1,0,.4,1.1.5,2.9,1.3-.6-4-.3-7.4-1.6-10-1.4-2.9-2.3-5.8.4-7.5,1.4-.9,4.4.4,6.6.8.7.1,1.4.7,3.3.6-.5-1.3-.7-2.9-1.6-4-1.9-2.3-1.9-3.7.7-5.6,1.4-1,1.8-3.3,3.3-6.2,1.9.7,4.7,1.3,6.9,2.8,5.5,3.6,6.4,3.4,9-2.6.7-1.5,2.3-2.8,3.8-3.7,1.2-.7,2.8-1,4.3-1.1,8.3-.9,16.5-1.7,24.8-2.5-.9,2.3-.3,4.4,3.6,5.7,1.6.5,2.4,3.7,3.2,5.8,1,2.6,2.4,3.6,5.3,4.3,7.2,1.9,14.2,4.6,21.5,7.7-.4,9.7-1.2,18.8-1.7,27.8-.1,2.5-3.1,6.1,2.2,7.2.4.2.5.4.7.6-6.2,7.6-16.6,8.1-24.1,15v-5.2c-5.4,2-6.1,6.3-7.1,11.3-5.6,0-11.4,0-17.1,0-7.8,0-10.9,2.9-10.9,10.8,0,9.3.2,18.7,0,28-.3,7.8,3.7,12.9,11.6,11.7.8-.1,1.6.2,2.9.3.1,2.2.3,4.3.3,6.4.2,6.4,2.4,9.5,8.7,10.9,12.2,2.6,23.6,6.9,33.7,15.2-1.6,2.2-3.3,3.8-5,5.4Z"/>
  <path class="cls-13" d="M781.3,562c-.1-5.3-.7-10.6-.2-15.7.4-3.3-.3-7.5,3.8-9.8.8-.4.3-3.1.4-5.3-1.5.5-2.5.8-4.3,1.4.2-3.3-.5-6.5.6-9,2.8-5.9,1.1-11.2-1-16.5-1.1-2.7-3.2-4.9-4.9-7.3-.5.2-1,.4-1.5.6.7-4.7,1.4-9.3,2.1-14.1,11.1,6.3,13.4,1.7,21.2-6.2,1.9-2,3.1-3.9,6.2-4,1.2,0,2.3-1.8,3.7-3,2.3.6,4.8,1,7.3,1.8,5.9,2,6.1,7.7,7.9,12.3.6,1.5.8,3.2,1.5,4.6,3.8,7.4,4.6,14.6-.3,21.9-.7,1.1-1,3.3-.4,4.2,3.3,4.6,2.2,9.4,1.4,14.4-1.6,10.2-3,20.4-4.5,30.5-.1,1-.5,1.9-1,3.6-2.4-1.4-4.4-2.7-6.6-3.7-2.1-.9-4.4-2.2-6.4-2-1.5.1-4,2.3-4,3.7-.4,7.2-7.2,12.1-13.9,9.3-1.4-.6-2-3-3.2-5.2-1.1-1.6-1.9-2.5-2.8-3.7,0-.2-.2-.6.2-.7.8-.4,1.3-.7,1.8-1.1-1-.4-2.1-.8-3.1-1.2Z"/>
  <path class="cls-13" d="M1020,609c-4.3,7.6-9,15-12.8,22.9-1.9,3.9-3,8.2,1.1,12.4,2.1,2.2,2.5,6.1,3.6,9.2.1.4,0,1-.2,1.4-1.5,2.3-3.5,4.4-4.3,6.9-.8,2.4-.5,5.2-.6,7.6-5.7-.9-11.3-1.5-16.8-2.8-2.3-.5-4.5-2.3-6.2-4-2-1.9-3.4-4.5-5-6.7-2.5-3.4-5.6-4.3-10-4-3.1.2-6.8-.9-9.5-2.7-6.8-4.4-12.9-9.8-19.8-13.9-3.1-1.8-7.5-1.5-11.3-2.1-3.8-.6-6.7-7-7.6-10.5-1.9-7.8,5.6-9,8.5-14,.8,1.5,1.4,2.7,2.2,3.9,2,2.8,5.5,2.6,6.5-.5,1-3.1,2.3-4,5.5-3,1.3.4,3.1-.4,4.7-.7,5.2,7.7,11.8,9.6,20.8,6.7,3-1,6.6-1,9.8-.6,4.3.5,8,0,11-3.1,3.5-3.5,7.6-3.7,12-2.6,1.4.3,3.8.9,4.2.4,4-5.8,10.1-1.6,15.4-4-.5,1.6-.8,2.4-1.1,3.6,0,.3,0,.3,0,.3Z"/>
  <path class="cls-13" d="M1020,609c7,.2,10.9-5.3,7.6-11.2-2-3.6-.4-4.2,2.5-5,7.2-1.7,7.5-3.7,3.7-10.5-2-3.5-2.3-7.9-3.7-11.8-1.1-2.9-2.8-5.6-4-8.5-2.1-4.9-3.9-9.8-6-14.7-3.4-8.2-4-8.3-11.5-3.9-.6.3-1.1.6-1.5.8-2.4-1.6-4.6-3.1-7.7-5.1,33.7,2.6,44.7-15.8,43.1-46.7,9,4.8,16.8,8.8,24.4,13.2,1.2.7,1.8,3.3,1.9,5,.7,7.2,1.1,14.4,1.7,22.5-1.3-.9-3.2-1.7-4.3-3.2-3-3.9-5-4.4-8-.8-2.9,3.4-5.3,7.2-7.7,10.9-.3.5,0,1.6.2,2.3.8,2.5.7,4.4-1.4,6.7-3.4,3.7-1.3,6.6,3.5,8.2,5.2,1.8,9.8,5.2,13.1,7.1.9,6.1,1.6,10.8,2.1,15.5.2,1.4.2,3-.4,4.1-.3.6-2.3.6-3.4.4-9-1.6-16.3,5.7-14.3,14.5.9,4,.5,7.1-3.7,9.1-5.6,2.6-8.2,7.8-9.8,13.2-2,6.6-7.1,3.1-10.8,3.6-3.7.5-3.1-3.1-3.6-5.4-.7-3.2-1.3-6.5-1.9-10.1,0-.4,0-.4,0-.4Z"/>
  <path class="cls-11" d="M940.2,499c-.4,10.2.7,20.9-1.7,30.6-3.3,13.1-13.7,20.5-27.1,21.7-11,1-22.2.2-33.8.2,0-3.9,0-7.8.5-12.4.7-1.6.9-2.5.9-3.5.2-9.4.3-9.2,9.1-11.8,5.5-1.6,10.4-4.1,13.3-9.9,2.8-3.7,6-7,7.5-11,4.9-12.9,2.8-26.6,3.6-39.9,4.8-1.1,9-1.9,13.1,1.2,4.3,3.2,8.9,5.9,13.4,9.3,0,6.6,0,12.8,0,19,0,2.2.7,4.4,1.1,6.6Z"/>
  <path class="cls-2" d="M920.1,402.6c1.5-1.8,3.2-3.4,4.9-5.3,1.9.8,3.7,1.9,5.5,3.1,6.7,4.6,11.5,3.4,15.7-5.1,2.8,6.3,5.8,11.6,7.6,17.3,4.1,12.4,10.5,23.2,20.4,31.9,1.2,1,1.6,3.5,1.6,5.3.1,17.8,0,35.6,0,53.4,0,3.3,0,6.6,0,10.8-2-1.1-4-2.9-6-3-1.9-.1-4,1.5-5.6,2.3-1.9-3.8-3.4-7.8-5.8-11.2-1.4-2-4.3-2.9-6.3-4.6-1.2-1-2.8-2.6-2.8-4-.2-12-.7-24,0-35.9,1.2-24.2-8.8-42-29.2-54.9Z"/>
  <path class="cls-3" d="M1141.6,529.7v21.7c-1.1.2-2.2.5-3.3.5-9.2,0-18.3.2-27.5,0-19.6-.5-32.2-12.9-33.1-32.5-.2-5.5-.1-11,.3-16.9,6.1,2,11.6,2.4,16.9-1.2.5-.3,1.3-.1,2.1,0,1,1.1,1.9,2,2.8,3.2.4,1.6.4,3.2,1.2,4,6.1,5.5,11.8,11.6,18.6,16.1,6.3,4.1,14,5.9,21.8,5.1Z"/>
  <path class="cls-12" d="M1100,504.2c-.9-.9-1.7-1.7-2.8-3.3-2.2-8.2-4.3-15.7-6.4-23.1-6.9,2.7-8.9,1.7-10.4-5.3-.3-1.3,0-2.7-.4-3.9-.4-1-1.4-1.7-2.2-2.5-.1-8.4-.2-16.7.1-25.5,3.8.5,7,1.6,10.3,2.6,3.1.8,4.1,2.6,3.9,5.8-.2,3.8.2,7.7.4,10.9,8.6,2.8,15-.7,21.5-3.6,2.6-1.2,5.3-2.2,7.7-3.7,5.4-3.5,4.2-9.2,4.6-14.4.6,0,1,0,1.4,0,0,18,.1,36-.3,54.5-2.9,2-5.1,4-7.8,4.9-4.9,1.6-10.1,2.2-15.1,3.6-1.7.5-3.1,2-4.6,3Z"/>
  <path class="cls-10" d="M1126,370c.6,8.4,1.2,16.8,1.2,25.6-1.2.8-2.2,1-2.6,1.6-1.9,3-3.5,6.1-8.1,4-.8-.4-2.3,1-3.6,1.4-1.4.5-2.7,1.2-4.1,1.3-5.2.4-10.4.7-15.6,1-5.2-5.5-13.5-9.3-13.1-19.3-1.1,1.8-1.8,3.1-2.6,4.4-1.2-7.1-2.4-14.3-9.3-19.2-.3-.4-.2-.8,0-1-.2-1.1-.7-2-1.2-3.1,0-.7-.1-1.1,0-1.7,11.8.8,23.3,1.9,34.8,3,8,.7,16,1.3,24.1,2M1071.2,368.6c0-.4,0-.8,0-1.2-.2,0-.5,0-.5,0,0,.4,0,.8.5,1.2Z"/>
  <path class="cls-4" d="M1044,323.8c2.4-.8,4.8-1.9,7.3-2.2,17.2-2.4,34.2-2.1,49.7,7.1,7.2,4.3,13.3,9.9,16.8,18.2-1.5,2.1-2,4.4-5.1,2.5-1.5-.9-4.2-.2-6.3,0-3.4.4-6.7,1.4-10.1,1.5-7.8.2-15.6.3-23.3,0-4.1-.2-7.4,1-10.3,3.9-3.1-5.4-5.9-10.6-8.7-16.1-3.4-5.2-6.7-10-10-14.9Z"/>
  <path class="cls-5" d="M984.4,416.9c-.4-8.8-.2-17.6-1.4-26.3-1.8-12.2-11.1-19.9-23.4-20.5-5.3-.3-10.6-.2-15.9,0-5,.1-7.7,3.3-7.4,8.3.1,2.6,0,5.3-.5,8.4-1.5.4-2.6.4-3.5,0,1.4-6.7,2.6-13.1,3.6-18.8,8.7,0,16.4,0,24.5.2,7.4,1.7,14.4,3.5,21.5,4.6,10.1,1.6,16.6,8.5,23.5,14.9,6.5,6,9.4,14.1,11.7,22.7.7,1.1,1.3,1.9,2,3.1,0,1.5,0,2.5,0,3.8,0,.2,0,.7-.4.8-2,.1-3.6.2-5.1.3-7.1,0-14.3.1-21.5.2-1.4-.4-3.2-.9-5.4-1.4-.9,0-1.6-.1-2.2-.2Z"/>
  <path class="cls-13" d="M1077.3,390.5c.9-1.7,1.6-3,2.7-4.8-.3,10,7.9,13.8,13.1,19.3,5.3-.3,10.5-.6,15.6-1,1.4-.1,2.8-.8,4.1-1.3,1.2-.5,2.8-1.8,3.6-1.4,4.6,2.1,6.2-1.1,8.1-4,.4-.6,1.4-.8,2.5-1.3.5,13.7.7,27.4.7,41.6-.5.5-.8.4-1.8.2-.7-.9-1-1.6-1-2.2-.3-7.9-.6-8.8-8.1-6.3-7.7,2.6-14.7,3.3-23-.3.3,2.6.5,4.6.7,6.5-.5,0-1,.2-1.6.3-.3-2.2-1.2-4.5-.9-6.7.9-8.4-8.3-16.3-14.4-17-.1-7-.3-14-.3-21.5Z"/>
  <path class="cls-7" d="M1077.5,412.5c6.2.2,15.4,8.1,14.6,16.6-.2,2.2.6,4.5.9,6.7.5,0,1-.2,1.6-.3-.2-2-.4-3.9-.7-6.5,8.3,3.6,15.3,2.9,23,.3,7.5-2.5,7.8-1.6,8.1,6.3,0,.6.3,1.3.7,2.2.2,5.5,1.4,11.2-4,14.7-2.4,1.5-5.1,2.6-7.7,3.7-6.5,2.9-12.9,6.4-21.5,3.6-.1-3.1-.6-7-.4-10.9.2-3.2-.8-5-3.9-5.8-3.3-.9-6.6-2-10.2-3-.4-9-.5-18.1-.5-27.6Z"/>
  <path class="cls-6" d="M1063,355c2.6-3.1,5.9-4.2,10-4.1,7.8.3,15.5.2,23.3,0,3.4-.1,6.7-1.1,10.1-1.5,2.1-.3,4.8-1,6.3,0,3.1,1.9,3.6-.4,5.1-2.2,2.9,7.2,5.6,14.6,8.2,22.4-8.1-.3-16.1-.9-24.1-1.6-11.5-1.1-23.1-2.2-35.1-3.3-1.6-3.2-2.7-6.5-3.9-9.7Z"/>
  <path class="cls-8" d="M1100,504.5c1.5-1.4,2.9-2.9,4.6-3.4,5-1.4,10.1-2.1,15.1-3.6,2.6-.8,4.9-2.9,7.7-4.4.4,4.9.5,9.9.6,14.8,0,8.8,2.3,11,11.1,11.4.8,0,1.6.1,2.9.3,0,3.3,0,6.4,0,9.8-8,1.2-15.6-.6-21.9-4.8-6.8-4.4-12.6-10.6-18.6-16.1-.8-.7-.8-2.4-1.2-4Z"/>
  <path class="cls-10" d="M1010.1,341.1c2.2-1.9,4.2-4.1,6.6-5.7.7-.5,2.9.2,3.7,1.1,10,10.8,17,23.3,20.9,37.5.3,1.1-.1,2.5-.6,3.6-2,4.3-4.1,8.6-6.7,12.9-2.3-6.5-4.1-13-5.9-19.8-.3-.8-.5-1.3-.8-2.2-1-2.2-2-4-3.2-6.1-1.7-3-3.3-5.8-4.9-8.8-2-2.8-4-5.2-6-7.7,0,0,0,0,0-.4-1.1-1.7-2.1-3-3.1-4.4Z"/>
  <path class="cls-8" d="M1062.7,354.8c1.4,3.5,2.5,6.7,3.9,10.2.3.7.3,1,.4,2,.4,1.4.6,2.2.9,3,0,0,0,.3,0,.5-5.9-.3-11.9-.7-18.2-1.2-3.1-6.8-6.6-14.8-9.9-23.1,1.4.2,2.5.8,2.9,1,4.1-3,7.7-5.6,11.4-8.2,2.8,5.2,5.6,10.4,8.7,15.8Z"/>
  <path class="cls-7" d="M926.2,291.9c-5.1-1.1-2.2-4.7-2.1-7.2.5-9,1.3-18.1,2-27.6,5,.4,10.1,1.4,15.2,2.4-3.2,4.3-5.9,7.9-8.7,11.6,3.9,1.9,6.4,3.2,9.4,4.7-1.1,1.2-1.8,2-2.6,2.8-3.7,3.5-3,8.8,1.4,11.6,1.6,1.1,3,2.6,4.3,4,3,3.1,1.6,4.7-2.3,5.9-.8-4.3-1.5-8.6-7.7-8.5-2.1-.9-3.6-1.8-5.1-2.8-.1-.2-.2-.2-.3-.3.1.1.2.3.4.8-1.3,1.1-2.6,1.8-3.8,2.6Z"/>
  <path class="cls-8" d="M1077.6,466.5c.9.4,2,1.1,2.3,2.1.4,1.2.1,2.6.4,3.9,1.5,7,3.6,7.9,10.4,5.3,2.1,7.5,4.1,15,6.2,22.9-.7.4-1.5.3-2,.6-5.3,3.6-10.8,3.2-16.8.8-.5-6.3-.5-12.7-.3-19.6.4-.7.5-.8.5-.9-.2-.2-.4-.4-.6-.5-.1-4.7-.3-9.4-.3-14.5Z"/>
  <path class="cls-14" d="M932,387c1.1,0,2.2.2,3.6.1.4,1.8.5,3.7.6,6.3-13.7-10.5-28.1-17.8-45.1-20.7,1.1-10.9-.5-19.8-14.8-17.2v-32.8c18.5,0,36.7,0,55.4.5.4.9.3,1.4,0,1.8-.8,0-1.2,0-1.9,0-.2,0-.7,0-1-.3-15.9-.4-31.6-.6-47.2-.6-1.2,0-3.3,1.7-3.3,2.7-.3,8.6-.2,17.2-.2,25.6,1.2.3,1.7.5,2.2.5,10.1.7,12.2,2.7,12.7,13,.2,3.6,2,5.1,5.2,6.3,8.4,3,16.6,6.4,25.2,9.7,2.1,1,3.8,2,5.7,3.3,1,.8,1.9,1.2,2.9,1.7,0,0,0,0,0,0Z"/>
  <path class="cls-12" d="M1054,338.6c-3.6,3-7.2,5.6-11.3,8.6-.4-.2-1.5-.7-3-1.3-4.4-5.4-8.3-10.7-13.2-17.2,5.9-1.8,11.3-3.4,17.1-4.9,3.7,4.9,7,9.7,10.4,14.9Z"/>
  <path class="cls-14" d="M1028,371c1.8,6.5,3.6,13,5.6,19.7.3,38,.3,75.8.4,113.5,0,6.2-1.1,11.9-5.5,16.9-.4,0-.6-.1-.6-.5,1-2.8,2-5.2,3.3-7.9.4-1.6.7-2.9.7-4.2,0-30.5,0-61,0-92,0-3.3.1-6.1,0-8.9-.2-4.9-.6-9.7-1-15-.7-4.6-1.6-8.7-2.2-12.8-.4-2.9-.5-5.8-.8-8.7Z"/>
  <path class="cls-14" d="M940.2,498.5c-.5-1.7-1.1-3.9-1.2-6.1-.2-6.2,0-12.3,0-19.4-.3-9-.4-17.2-1.1-25.2-.3-3.3-1.9-6.5-2.9-10.1-1-2.9-1.4-6-3.2-7.8-5.2-5.6-10.6-11.2-16.6-16-3.8-3-8.8-4.4-13-6.8-2.9-1.6-5.4-2.1-8.2-.4,1-1.4,2-2.5,2.9-3.6,19.6,5.1,35.1,15.1,41.9,36,0,.9.2,1.3.2,1.6.2.8.4,1.7.4,3.2,0,3.9.3,7.1.6,10.4.2.3.2.6,0,1.6,0,.9,0,1.2,0,1.5,0,13.6.1,27.1,0,41.2Z"/>
  <path class="cls-11" d="M984.3,417.4c.8-.4,1.4-.3,2.3.2.3,5.8.3,11.1,0,16.7-.4,8.2-.6,16.1-.6,23.9,0,14.5-.1,29,0,43.4,0,4.5-2,9.9,3.5,13.1.3.2,0,1,.3,1.4,1.6,2.6,3.2,5.3,5,7.8,1.1,1.5,2.7,2.7,4.1,4.3,0,.4,0,.6,0,.8-10.1-4.7-14.8-13.1-14.8-23.9-.2-29.1,0-58.2.1-87.7Z"/>
  <path class="cls-5" d="M896.6,402.9c-.6,1.2-1.6,2.3-2.9,4-.4,2.1-.6,3.6-.7,5.6,0,31.2,0,61.9,0,93,0,1.8,0,3.1,0,4.9-.4,1.5-.8,2.6-1.1,3.3-.2-2.1-.5-3.8-.7-5.6,0-34.7,0-69.4.2-104.7.5-.8.7-1.1.7-1.4,1.4.3,2.8.5,4.6,1Z"/>
  <path class="cls-14" d="M1009.7,341c1.3,1.5,2.3,2.8,3,4.5-4.5-2.6-8.5-5.7-12.8-8.4-3.8-2.3-7.9-4.1-12.1-6.4-2.1-1.1-3.9-1.9-6-3-1.4-.7-2.6-1.2-4-2-1.8,0-3.3,0-5.2.3-1.4,0-2.5,0-3.6-.3,0-1,0-1.6,0-2.3,15.6,1,28.8,7.3,40.8,17.6Z"/>
  <path class="cls-14" d="M891.9,514c.4-1.1.8-2.2,1.5-3.6,2.7,1.1,3.8,4.9,7.7,3.6-2.5,5.6-7.5,8.2-13,9.8-8.8,2.5-8.9,2.4-9.1,11.8,0,1-.3,1.9-.8,3.1-.4-4.1-.5-8.4-.2-13.3,2.5-2.3,4.7-4,6.8-5.6.3-.1.6-.2,1.6-.5,4.2.6,3.4-2.1,3.8-3.8,0,0,0-.2.3-.3.7-.4,1.1-.8,1.4-1.1Z"/>
  <path class="cls-14" d="M999.3,529.2c-.3-.4-.3-.6.1-1,9.9,2.2,18.5.5,25.9-6,.7-.6,1.7-.8,2.6-1.2,0,0,.2.2.4.3-5.8,9-17,12.2-29,7.9Z"/>
  <path class="cls-7" d="M840.3,416.9c1.8,1.8,3.2,3.5,5.1,5.6-3.7.5-6.6.9-9.9,1.3.1.2,0-.3-.4-.8-1.1-1.4-2.2-2.8-3.4-4.2,1.8-.5,3.6-1.1,5.4-1.6,1-.3,2-.3,3.3-.3Z"/>
  <path class="cls-5" d="M968.6,323.3c.3.8.4,1.4,0,2.4-12.5,0-24.6-.4-36.6-.7,0-.5,0-.9,0-1.7,4-.4,7.9-.5,12.8-.4,3.8.2,6.6.2,9.4.2,4.2,0,8.4,0,12.7.1.5,0,.9,0,1.7,0Z"/>
  <path class="cls-10" d="M782.5,565.1c.8.9,1.6,1.9,2.5,3.1-1.2,1.4-2.6,2.5-4.1,3.8-1.7-3-3.3-5.8-5.3-9.4,1.8.6,3.3,1.2,5.1,1.6.3-.2.3-.2.1.1.1.8.5,1.2.8,1.7.3-.3.6-.6.9-.9Z"/>
  <path class="cls-12" d="M926.3,292c1.1-.8,2.4-1.6,3.7-2.6,0-.3,0-.3,0-.3,1.5.9,2.9,1.7,4.7,2.8.4,1.6.5,3.1.6,4.5-1.3-.3-2.7-.5-3.9-1-1.3-.6-2.5-1.5-4-2.5-.4-.4-.6-.6-1-.8Z"/>
  <path class="cls-12" d="M980.2,522.1c-3.6,1.4-7.3,2.6-11.1,3.8,2.2-4.1,9-6.4,11.1-3.8Z"/>
  <path class="cls-14" d="M966.6,323.1c-3.9.1-8.1,0-12.3,0-2.8,0-5.7,0-9-.1,6.6,0,13.8,0,21.3,0Z"/>
  <path class="cls-11" d="M884.4,519.7c-1.8,1.8-3.9,3.4-6.4,5.3-2.6-6.8,2.6-5,6.4-5.3Z"/>
  <path class="cls-11" d="M891.9,513.6c-.4.7-.7,1-1.3,1.4,0-2.1.1-4.2.5-6.7.4,1.4.6,3.1.9,5.2Z"/>
  <path class="cls-11" d="M940.3,453.9c-.4-2.8-.7-6-.8-9.5.4,2.9.7,6,.8,9.5Z"/>
  <path class="cls-11" d="M889.9,515.6c-.2,1.5.6,4.3-3.1,3.6.8-1.1,1.8-2.2,3.1-3.6Z"/>
  <path class="cls-10" d="M781.3,562.3c1,0,2.1.4,3.1.8-.5.3-1,.7-2,.9-.8,0-1.1,0-1.4,0,0,0,0,0,0,0,0-.4.2-.9.3-1.7Z"/>
  <path class="cls-11" d="M939.2,440.5c-.2-.2-.2-.5-.3-1,.1.2.2.5.3,1Z"/>
  <path class="cls-14" d="M891.7,402c.2.3,0,.6-.4.9-.1-.2,0-.6.4-.9Z"/>
  <path class="cls-3" d="M1077.8,481.3c.3,0,.5,0,.6.3,0,0-.1.2-.4.4-.2,0-.3-.2-.2-.7Z"/>
  <path class="cls-11" d="M940.3,457.2c-.2,0-.2-.4-.2-1,.1,0,.2.4.2,1Z"/>
  <path class="cls-16" d="M780.8,564.3c.5-.3.8-.3,1.3-.2.2.2.3.6.3.8-.2.5-.5.8-.8,1.1-.3-.5-.6-.9-.8-1.7Z"/>
  <path class="cls-1" d="M901.4,513.9c-4.1,1.4-5.2-2.3-8-3.9-.4-1.4-.4-2.8,0-4.7.8-2.2,1.5-3.9,1.5-5.6-.2-14.9-.8-29.8-.9-44.8,0-12.4.7-24.9.8-37.3,0-1.9-1.2-3.8-1.8-5.7.1-1.5.3-3,.7-4.8,3-2.3,5.6-1.8,8.4-.2,4.3,2.4,9.3,3.8,13,6.8,6,4.8,11.4,10.4,16.6,16,1.7,1.9,2.1,4.9,2.8,7.8-5.2-1.4-10.1-3.1-15-4.8-.2,0-.3-.1-.5-.2-5.3-1.6-7.1-.4-7.2,5.1,0,8.4,0,16.9,0,25.3-.4,13.4,1.7,27-3.1,39.9-1.5,3.9-4.7,7.2-7.5,11Z"/>
  <path class="cls-15" d="M912.4,463c-.4-8.4-.5-16.9-.4-25.3,0-5.5,1.9-6.7,7.2-5.1.2,0,.3.1.5.2,4.9,1.7,9.7,3.4,15,5.2,1.4,3.3,3,6.5,3.2,9.8.7,8.1.8,16.2,1.1,24.8-4.5-2.5-9.1-5.2-13.4-8.3-4.1-3.1-8.4-2.3-13.1-1.2Z"/>
  <path class="cls-6" d="M1068.2,369.8c-.6-.6-.8-1.4-1.1-2.5.5.6.9,1.4,1.1,2.5Z"/>
  <path class="cls-6" d="M1071,368.6c-.2-.4-.2-.8-.2-1.2,0,0,.3,0,.5,0,0,.4,0,.8-.3,1.2Z"/>
  <path class="cls-17" d="M931.6,325c12.4.3,24.4.7,36.9,1,1.5,0,2.6,0,4.3,0,2.2,0,3.6,0,5.1,0,1.2.5,2.4,1,3.8,2.1,1.3,3.8,3.6,3.8,6.2,2.9,4,2,8.1,3.8,11.9,6.1,4.3,2.7,8.4,5.8,12.9,8.7.4,0,.3,0,.3.4,2,2.8,4,5.2,6.1,7.6,1.6,2.7,3.1,5.5,4.8,8.9,1.2,2.5,2.2,4.3,3.3,6.1.3.5.5,1,.8,1.8.3,3.2.4,6.1.8,9,.6,4.2,1.4,8.3,2.2,13.3,0,3.7-.1,6.5,0,9.4.2,4.9.6,9.7.9,14.6,0,30.5,0,61,0,91.5,0,1.3-.3,2.6-1.1,4.1-1.4-1.3-2.7-2.9-2.8-4.4-.5-11.3-.9-22.6-1.1-33.8-.2-16,0-32,0-48q0-7.7-8-9.4c0-1.1,0-2.1,0-3.9-.7-1.5-1.3-2.3-2-3.1-2.2-8.3-5.1-16.3-11.7-22.4-6.9-6.4-13.4-13.4-23.5-14.9-7.1-1.1-14.1-2.9-21.5-5-1.7-2-2.7-4.2-4.2-4.6-5.9-1.8-7.1-6-3-10.8,1.1-1.3,1.9-5,1.3-5.4-4.6-3.3-4-7-.8-11.5-2.3-.2-3.6-.3-4.9-.5-1.1-.2-2.3-.4-4.1-.8,5.1-3.6,12.8-3.9,16.8-1.3,4.8,3.1,9.5.7,14.3-.3-12.4-3.7-25-5.2-38.3-5.6-2.8,0-5.2,0-7.5-.3,0-.8,0-1.2,0-1.7.4,0,.9,0,1.6,0Z"/>
  <path class="cls-15" d="M1019,417.2q8,1.4,8,9.2c0,16-.1,32,0,48,.1,11.3.5,22.6,1.1,33.8,0,1.6,1.4,3.1,2.5,4.7-.6,2.5-1.6,4.9-2.6,7.7-.9.8-2,1-2.6,1.6-7.5,6.5-16,8.3-26,5.8-1.8-1.4-3.4-2.5-4.5-4.1-1.8-2.5-3.4-5.2-5-7.8-.2-.4,0-1.2-.3-1.4-5.5-3.2-3.4-8.5-3.5-13.1-.2-14.5-.1-29,0-43.4,0-7.9.2-15.8,1-23.9,1.4.4,2.6,1,2.9,1.8.6,2.4.9,4.8,1.1,7.3.3,3.8,1.6,5.9,6.1,5.8,4-.1,8.2.6,12.1,1.7,4.3,1.2,9.8-1.9,9.8-6.3,0-8.9,0-17.7,0-26.6,0,0,0-.5,0-.7Z"/>
  <path class="cls-9" d="M938,327c12.8.4,25.4,2,37.8,5.6-4.8,1-9.5,3.4-14.3.3-4-2.6-11.7-2.3-16.8,1.3,1.8.3,2.9.6,4.1.8,1.3.2,2.6.3,4.9.5-3.2,4.4-3.8,8.2.8,11.5.6.4-.2,4.1-1.3,5.4-4.1,4.8-2.9,9,3,10.8,1.6.5,2.6,2.7,3.9,4.5-7.7.4-15.5.4-24.1.4-1,5.7-2.1,12.1-3.6,18.8-.3.3-.3.3-.3,0-1-.8-2-1.2-3-1.7-1.8-1-3.5-2-5.6-3.4-.8-1.7-1.3-2.9-1.5-3.5,4-1.6,7.6-3.1,10.5-4.3-1.3-7.7-2.1-14.3-3.6-20.8-.8-3.7-.1-7.9-5-10.5-3.2-1.7-1.8-5.3,2.1-6.6.9-.3,2.3-.6,2.5-1.2,1.4-4.3,4.9-3.7,8.2-3.8,2,0,4-.2,6.6-.3-2.3-1.6-3.7-2.6-5.1-3.7Z"/>
  <path class="cls-18" d="M1018.6,418c.4,8.8.5,17.7.4,26.5,0,4.4-5.6,7.5-9.8,6.3-3.9-1.1-8.1-1.9-12.1-1.7-4.5.1-5.8-1.9-6.1-5.8-.2-2.5-.5-4.9-1.1-7.3-.2-.8-1.4-1.4-2.6-2.1-.4-5.3-.4-10.6-.4-16.4,1.8,0,3.6.5,5.1.9,7.2,0,14.3-.1,21.5-.2,1.6,0,3.2-.1,5.1-.3Z"/>
  <path class="cls-18" d="M1017,410.4c.7.4,1.3,1.2,2,2.3-.7-.4-1.3-1.2-2-2.3Z"/>
  <path class="cls-14" d="M1019.1,353.5c-2-2.1-4-4.5-6-7.3,2,2.1,4,4.5,6,7.3Z"/>
  <path class="cls-14" d="M1027.2,368.5c-1-1.4-2.1-3.2-3.1-5.4,1,1.4,2,3.3,3.1,5.4Z"/>
  <path class="cls-12" d="M930,289c-.1-.1-.2-.3-.4-.4,0,0,.2.1.3.3,0,.1,0,.1,0,.1Z"/>
  <path class="cls-5" d="M937.6,327c1.9,1,3.3,2,5.6,3.7-2.6.1-4.6.3-6.6.3-3.3,0-6.8-.5-8.2,3.8-.2.6-1.6.9-2.5,1.2-3.9,1.3-5.3,5-2.1,6.6,4.9,2.5,4.2,6.8,5,10.5,1.5,6.5,2.3,13.2,3.6,20.8-2.9,1.2-6.5,2.6-10.5,4.3.2.5.7,1.8,1.2,3.4-8.3-2.9-16.5-6.3-24.9-9.3-3.2-1.2-5-2.7-5.2-6.3-.5-10.3-2.6-12.4-12.7-13-.5,0-1-.2-2.2-.5,0-8.4-.1-17,.2-25.6,0-1,2.2-2.7,3.3-2.7,15.6,0,31.3.1,46.9.9-5.1.9-10.2,1.2-15.3,1.5,0,.6,0,1.2,0,1.8,4.7,2.7,9.9,1.8,15,1.3.7,0,1.2-1.7,1.8-2.6,2.4,0,4.7,0,7.5,0M923.5,369.7q2.9,1.6,4.2-1.5c-1.4.4-2.6.7-4.2,1.5Z"/>
  <path class="cls-9" d="M930,326.7c-.6,1.2-1.1,2.9-1.8,2.9-5.1.5-10.3,1.3-15-1.3,0-.6,0-1.2,0-1.8,5.1-.3,10.2-.6,15.6-1.2.3-.3.8-.3,1-.3.2.5.2.9.2,1.7Z"/>
  <path class="cls-5" d="M929.1,385.3c.8.2,1.8.6,2.8,1.4-.9-.1-1.8-.6-2.8-1.4Z"/>
  <path class="cls-15" d="M1032,416.5c-.3-4.4-.7-9.3-1-14.1-.1-2.8,0-5.6,0-8.9.3,4.4.7,9.3,1,14.1.1,2.8,0,5.6,0,8.9Z"/>
  <path class="cls-14" d="M893,412.5c.7,1.4,1.9,3.4,1.8,5.3-.2,12.4-.8,24.9-.8,37.3,0,14.9.6,29.8.9,44.8,0,1.7-.7,3.4-1.5,5.1-.4-30.6-.4-61.3-.4-92.5Z"/>
  <path class="cls-9" d="M987.8,330.7c-2.4,1.1-4.7,1.1-5.8-2.4,1.8.4,3.7,1.3,5.8,2.4Z"/>
  <path class="cls-5" d="M977.8,325.7c-1.2.3-2.7.3-4.5.3,1.2-.2,2.7-.4,4.5-.3Z"/>
  <path class="cls-9" d="M923.7,369.5c1.4-.6,2.6-.8,4-1.2q-1.3,3-4,1.2Z"/>
</svg>